HIERARCHY
ROOT Hips
{
	OFFSET 0.000000 0.000000 0.000000
	CHANNELS 6 Xposition Yposition Zposition Zrotation Yrotation Xrotation 
	JOINT LHipJoint
	{
		OFFSET 0.000000 0.000000 0.000000
		CHANNELS 3 Zrotation Yrotation Xrotation
		JOINT LeftUpLeg
		{
			OFFSET 1.363060 -1.794630 0.839290
			CHANNELS 3 Zrotation Yrotation Xrotation
			JOINT LeftLeg
			{
				OFFSET 2.448110 -6.726130 0.000000
				CHANNELS 3 Zrotation Yrotation Xrotation
				JOINT LeftFoot
				{
					OFFSET 2.562200 -7.039590 0.000000
					CHANNELS 3 Zrotation Yrotation Xrotation
					JOINT LeftToeBase
					{
						OFFSET 0.157640 -0.433110 2.322550
						CHANNELS 3 Zrotation Yrotation Xrotation
						End Site
						{
							OFFSET 0.000000 0.000000 0.000000
						}
					}
				}
			}
		}
	}
	JOINT RHipJoint
	{
		OFFSET 0.000000 0.000000 0.000000
		CHANNELS 3 Zrotation Yrotation Xrotation
		JOINT RightUpLeg
		{
			OFFSET -1.305520 -1.794630 0.839290
			CHANNELS 3 Zrotation Yrotation Xrotation
			JOINT RightLeg
			{
				OFFSET -2.542530 -6.985550 0.000000
				CHANNELS 3 Zrotation Yrotation Xrotation
				JOINT RightFoot
				{
					OFFSET -2.568260 -7.056230 0.000000
					CHANNELS 3 Zrotation Yrotation Xrotation
					JOINT RightToeBase
					{
						OFFSET -0.164730 -0.452590 2.363150
						CHANNELS 3 Zrotation Yrotation Xrotation
						End Site
						{
							OFFSET 0.000000 0.000000 0.000000
						}
					}
				}
			}
		}
	}
	JOINT LowerBack
	{
		OFFSET 0.000000 0.000000 0.000000
		CHANNELS 3 Zrotation Yrotation Xrotation
		JOINT Spine
		{
			OFFSET 0.028270 2.035590 -0.193380
			CHANNELS 3 Zrotation Yrotation Xrotation
			JOINT Spine1
			{
				OFFSET 0.056720 2.048850 -0.042750
				CHANNELS 3 Zrotation Yrotation Xrotation
				JOINT Neck
				{
					OFFSET 0.000000 0.000000 0.000000
					CHANNELS 3 Zrotation Yrotation Xrotation
					JOINT Neck1
					{
						OFFSET -0.054170 1.746240 0.172020
						CHANNELS 3 Zrotation Yrotation Xrotation
						JOINT Head
						{
							OFFSET 0.104070 1.761360 -0.123970
							CHANNELS 3 Zrotation Yrotation Xrotation
							End Site
							{
								OFFSET 0.000000 0.000000 0.000000
							}
						}
					}
				}
				JOINT LeftShoulder
				{
					OFFSET 0.000000 0.000000 0.000000
					CHANNELS 3 Zrotation Yrotation Xrotation
					JOINT LeftArm
					{
						OFFSET 3.362410 1.200890 -0.311210
						CHANNELS 3 Zrotation Yrotation Xrotation
						JOINT LeftForeArm
						{
							OFFSET 4.983000 -0.000000 -0.000000
							CHANNELS 3 Zrotation Yrotation Xrotation
							JOINT LeftHand
							{
								OFFSET 3.483560 -0.000000 -0.000000
								CHANNELS 3 Zrotation Yrotation Xrotation
								JOINT LeftFingerBase
								{
									OFFSET 0.000000 0.000000 0.000000
									CHANNELS 3 Zrotation Yrotation Xrotation
									JOINT LeftHandIndex1
									{
										OFFSET 0.715260 -0.000000 -0.000000
										CHANNELS 3 Zrotation Yrotation Xrotation
										End Site
										{
											OFFSET 0.000000 0.000000 0.000000
										}
									}
								}
								JOINT LThumb
								{
									OFFSET 0.000000 0.000000 0.000000
									CHANNELS 3 Zrotation Yrotation Xrotation
									End Site
									{
										OFFSET 0.000000 0.000000 0.000000
									}
								}
							}
						}
					}
				}
				JOINT RightShoulder
				{
					OFFSET 0.000000 0.000000 0.000000
					CHANNELS 3 Zrotation Yrotation Xrotation
					JOINT RightArm
					{
						OFFSET -3.136600 1.374050 -0.404650
						CHANNELS 3 Zrotation Yrotation Xrotation
						JOINT RightForeArm
						{
							OFFSET -5.241900 -0.000000 -0.000000
							CHANNELS 3 Zrotation Yrotation Xrotation
							JOINT RightHand
							{
								OFFSET -3.444170 -0.000000 -0.000000
								CHANNELS 3 Zrotation Yrotation Xrotation
								JOINT RightFingerBase
								{
									OFFSET 0.000000 0.000000 0.000000
									CHANNELS 3 Zrotation Yrotation Xrotation
									JOINT RightHandIndex1
									{
										OFFSET -0.622530 -0.000000 -0.000000
										CHANNELS 3 Zrotation Yrotation Xrotation
										End Site
										{
											OFFSET 0.000000 0.000000 0.000000
										}
									}
								}
								JOINT RThumb
								{
									OFFSET 0.000000 0.000000 0.000000
									CHANNELS 3 Zrotation Yrotation Xrotation
									End Site
									{
										OFFSET 0.000000 0.000000 0.000000
									}
								}
							}
						}
					}
				}
			}
		}
	}
}
MOTION
Frames: 8
Frame Time: 0.008333
4.413214 17.405178 0.648494 6.214546 -55.839167 9.122076 -9.771328 0.362863 4.192049 -4.401696 -13.809765 -16.688731 -2.197700 -1.152540 -3.956307 -0.002385 2.820554 11.062493 1.370700 0.000000 -41.716500 10.463653 -1.343237 -3.341552 4.974016 -20.957042 -6.145938 1.194556 1.189367 -5.494775 -4.159717 -24.765445 2.794368 -6.624700 0.000000 -54.303600 -4.180047 2.114518 0.881708 -0.396320 2.464681 -3.140307 -0.281575 2.462354 -2.993133 -8.140250 0.135691 -2.762131 -0.352374 -0.108515 1.344261 0.000000 0.000000 0.000000 0.771270 1.225427 -2.440940 -76.887490 -4.826120 27.838020 179.894808 -70.178654 179.931772 7.968702 -0.955417 -0.103533 -0.127025 0.535720 -0.000000 0.000000 0.000000 0.000000 0.000000 0.000000 0.000000 -18.311234 6.647138 2.367250 -3.801761 41.854593 -70.090485 -3.083390 12.746809 -0.222302 -30.039650 8.174818 -2.421545 0.682905 -0.645386 -0.000000 0.000000 0.000000 0.000000 0.000000 0.000000 0.000000 
4.418301 17.406849 0.656828 6.111349 -55.674494 9.453405 -9.773400 0.351719 4.224607 -4.314245 -13.876957 -16.963463 -2.200046 -1.159742 -4.074197 -0.019087 2.682583 11.200117 1.336800 -0.000000 -41.710399 10.446266 -1.328921 -3.321587 5.130891 -20.895712 -6.390380 1.200546 1.211605 -5.541828 -4.204409 -24.952167 2.835730 -6.696300 0.000000 -54.174700 -4.128421 2.058929 0.838248 -0.398351 2.405467 -3.164307 -0.359379 2.405070 -3.032165 -7.929230 0.223916 -2.680697 -0.399916 -0.113041 1.366514 0.000000 0.000000 0.000000 0.602699 1.333880 -2.381784 -77.261242 -4.369876 27.308097 179.918203 -70.051297 179.931288 7.964116 -0.995796 -0.106647 -0.128177 0.541550 0.000000 0.000000 0.000000 0.000000 0.000000 0.000000 0.000000 -18.082915 6.768543 2.246593 -2.306582 41.489929 -66.461250 -2.887448 15.455874 -0.205123 -26.414466 4.536358 -1.226206 0.614021 -0.571292 -0.000000 0.000000 0.000000 0.000000 0.000000 0.000000 0.000000 
4.423971 17.408185 0.665455 6.010937 -55.553215 9.776739 -9.775669 0.343400 4.248993 -4.240858 -13.896563 -17.224374 -2.204195 -1.168045 -4.205813 -0.037009 2.532504 11.335757 1.298400 0.000000 -41.711400 10.430510 -1.313726 -3.293153 5.279913 -20.798149 -6.626697 1.203888 1.235935 -5.601988 -4.255604 -25.138895 2.883961 -6.764900 -0.000000 -54.053899 -4.096922 1.993776 0.798054 -0.401529 2.338473 -3.187492 -0.426829 2.339330 -3.067959 -7.682491 0.365577 -2.567722 -0.451140 -0.118245 1.396528 0.000000 0.000000 0.000000 0.442356 1.476911 -2.313731 -77.659980 -3.921016 26.775682 179.939893 -69.973198 179.930636 7.983665 -1.029142 -0.109659 -0.129597 0.546915 -0.000000 0.000000 0.000000 0.000000 0.000000 0.000000 0.000000 -17.789886 6.902010 2.111474 -0.919148 41.140920 -63.277464 -2.700093 18.219686 -0.184130 -22.816064 2.052610 -0.531621 0.527331 -0.521990 -0.000000 0.000000 0.000000 0.000000 0.000000 0.000000 0.000000 
4.430592 17.409103 0.673947 5.917250 -55.476140 10.082101 -9.778248 0.335409 4.262935 -4.180556 -13.884195 -17.453755 -2.209156 -1.177641 -4.361345 -0.054076 2.391597 11.472564 1.262100 -0.000000 -41.721200 10.415966 -1.296787 -3.262866 5.414105 -20.672953 -6.847143 1.205019 1.260328 -5.670549 -4.310143 -25.314767 2.936096 -6.827099 0.000000 -53.947600 -4.085775 1.924944 0.773589 -0.405921 2.269342 -3.207615 -0.483200 2.270918 -3.103221 -7.411045 0.521568 -2.427953 -0.503618 -0.123877 1.432996 0.000000 0.000000 0.000000 0.290451 1.653338 -2.236954 -78.081910 -3.501650 26.253804 179.960126 -69.952400 179.929779 8.032093 -1.053571 -0.112369 -0.131540 0.551696 -0.000000 0.000000 0.000000 0.000000 0.000000 0.000000 0.000000 -17.450281 7.013407 1.944098 0.410372 40.843041 -60.503846 -2.541579 21.049505 -0.162970 -19.566660 0.721315 -0.215794 0.436820 -0.500422 -0.000000 0.000000 0.000000 0.000000 0.000000 0.000000 0.000000 
4.438107 17.409466 0.682146 5.823846 -55.434198 10.378421 -9.781670 0.327466 4.262985 -4.141388 -13.805751 -17.684751 -2.217488 -1.187126 -4.495213 -0.074854 2.212376 11.590999 1.212000 0.000000 -41.740100 10.403745 -1.280170 -3.227222 5.540042 -20.525175 -7.060623 1.205074 1.285492 -5.746629 -4.366757 -25.477984 2.987413 -6.881300 -0.000001 -53.848399 -4.097658 1.856348 0.762261 -0.415353 2.201961 -3.225102 -0.541319 2.203978 -3.137303 -7.093186 0.646357 -2.267195 -0.566680 -0.130438 1.474302 0.000000 0.000000 0.000000 0.178267 1.844874 -2.156186 -78.536666 -3.114732 25.750079 179.976224 -69.994171 179.928643 8.116053 -1.073224 -0.115181 -0.133950 0.555955 0.000000 0.000000 0.000000 0.000000 0.000000 0.000000 0.000000 -16.992505 7.060171 1.744810 1.616046 40.619153 -57.982324 -2.413635 23.915068 -0.145435 -16.981004 0.398929 -0.138040 0.355909 -0.503422 -0.000000 0.000000 0.000000 0.000000 0.000000 0.000000 0.000000 
4.446871 17.409309 0.689579 5.742474 -55.429111 10.646708 -9.785236 0.316314 4.250885 -4.111491 -13.720290 -17.867192 -2.225258 -1.197914 -4.657458 -0.092289 2.067858 11.711227 1.172400 -0.000000 -41.768400 10.392491 -1.261462 -3.199772 5.644629 -20.370929 -7.251540 1.204442 1.307711 -5.821922 -4.419929 -25.613367 3.036223 -6.924300 0.000000 -53.775900 -4.129299 1.794210 0.782392 -0.426761 2.142211 -3.237509 -0.590620 2.144430 -3.177111 -6.763780 0.742788 -2.088390 -0.630078 -0.137203 1.519753 0.000000 0.000000 0.000000 0.085148 2.049916 -2.068653 -79.013310 -2.778481 25.273300 179.989899 -70.097986 179.927234 8.234334 -1.085733 -0.117996 -0.137040 0.559661 0.000000 0.000000 0.000000 0.000000 0.000000 0.000000 0.000000 -16.501888 7.057035 1.500183 2.860864 40.418642 -55.654397 -2.318061 26.931634 -0.133093 -15.066726 0.897444 -0.192268 0.287665 -0.526319 -0.000000 0.000000 0.000000 0.000000 0.000000 0.000000 0.000000 
4.456771 17.408619 0.696252 5.664096 -55.451888 10.898298 -9.788333 0.300663 4.223480 -4.100523 -13.600167 -18.121770 -2.230039 -1.199511 -4.629282 -0.113500 1.908208 11.716981 1.127300 -0.000001 -41.804300 10.382840 -1.242360 -3.176233 5.736917 -20.216617 -7.431284 1.204666 1.328421 -5.895360 -4.467758 -25.719388 3.079774 -6.955600 0.000001 -53.717500 -4.180525 1.739613 0.828026 -0.442700 2.091081 -3.245885 -0.641127 2.093442 -3.220815 -6.404790 0.790521 -1.897511 -0.702566 -0.144630 1.567715 0.000000 0.000000 0.000000 0.034809 2.250901 -1.978836 -79.516128 -2.486716 24.827889 179.998420 -70.257187 179.925514 8.388875 -1.095563 -0.121214 -0.140566 0.562945 0.000000 0.000000 0.000000 0.000000 0.000000 0.000000 0.000000 -15.915319 6.985136 1.222898 4.067611 40.234814 -53.422783 -2.243114 30.076113 -0.127893 -13.965606 1.994343 -0.318788 0.237450 -0.561783 -0.000000 0.000000 0.000000 0.000000 0.000000 0.000000 0.000000 
4.467823 17.407519 0.702083 5.590637 -55.497406 11.131515 -9.791359 0.281229 4.184370 -4.099860 -13.464734 -18.383105 -2.233550 -1.198006 -4.538239 -0.134120 1.755983 11.680403 1.083699 -0.000000 -41.844100 10.374226 -1.222594 -3.161227 5.816537 -20.072972 -7.599983 1.206652 1.346374 -5.962271 -4.506992 -25.790759 3.117188 -6.975400 -0.000000 -53.676700 -4.247449 1.693155 0.901355 -0.461777 2.048983 -3.249969 -0.690074 2.051449 -3.269930 -6.028550 0.800230 -1.698362 -0.782028 -0.152506 1.617206 0.000000 0.000000 0.000000 0.021672 2.440249 -1.887215 -80.036990 -2.238537 24.416276 -179.998479 -70.459411 179.923490 8.576986 -1.104711 -0.124838 -0.144419 0.565916 0.000000 0.000000 0.000000 0.000000 0.000000 0.000000 0.000000 -15.256755 6.859927 0.920685 5.275780 40.030217 -51.273160 -2.176408 33.388721 -0.129661 -13.596209 3.484219 -0.495104 0.203524 -0.603259 -0.000000 0.000000 0.000000 0.000000 0.000000 0.000000 0.000000 
